<?xml version="1.0" encoding="utf-8"?>
<!-- Generator: Adobe Illustrator 25.3.1, SVG Export Plug-In . SVG Version: 6.00 Build 0)  -->
<svg version="1.1" id="Layer_1" xmlns="http://www.w3.org/2000/svg" xmlns:xlink="http://www.w3.org/1999/xlink" x="0px" y="0px"
	 viewBox="0 0 600 87.9" style="enable-background:new 0 0 600 87.9;" xml:space="preserve">
<style type="text/css">
	.st0{fill-rule:evenodd;clip-rule:evenodd;fill:#243F60;}
	.st1{fill-rule:evenodd;clip-rule:evenodd;fill:#6FBD16;}
</style>
<path class="st0" d="M369.3,55.3c-0.8,0.1-1.9,0.3-3.3,0.5c-1.4,0.2-2.5,0.5-3.3,0.9c-1,0.5-1.7,1.2-2.2,2.1c-0.4,0.9-0.6,2-0.6,3.3
	v5.6c0,4.1,0,6.8,0.1,8.2c0.1,1.4,0.1,2.6,0.2,3.5c-4.5,2-9,3.6-13.5,4.7c-4.5,1.1-8.9,1.6-13.2,1.6c-4.6,0-9.1-0.9-13.4-2.6
	c-4.3-1.7-8-4.2-11.2-7.4c-3.2-3.2-5.8-7.1-7.7-11.7c-1.9-4.6-2.9-9.7-2.9-15.4c0-5.5,0.9-10.6,2.7-15.2c1.8-4.7,4.4-8.8,7.7-12.2
	c3.2-3.4,7.1-6,11.6-7.9c4.5-1.9,9.3-2.8,14.4-2.8c4.1,0,7.6,0.5,10.7,1.5c3,1,5.7,2.2,8,3.6l2.1-3.4h4.1l0.5,25.2h-4.2
	c-0.7-2.8-1.6-5.5-2.6-8.2c-1.1-2.7-2.4-5.1-4.1-7.2c-1.7-2.1-3.7-3.8-6.1-5.1c-2.4-1.3-5.3-1.9-8.6-1.9c-3.6,0-6.9,0.7-9.8,2.2
	c-2.9,1.5-5.3,3.7-7.4,6.6c-2.1,2.8-3.7,6.3-4.8,10.5c-1.1,4.2-1.7,8.9-1.7,14.1c0,4.6,0.6,8.9,1.7,12.9c1.1,4.1,2.7,7.5,4.8,10.5
	c2.1,3,4.7,5.4,7.9,7.1c3.2,1.7,6.7,2.6,10.8,2.6c3,0,5.7-0.5,8.2-1.4c2.5-0.9,4.2-1.9,5.2-2.9c0.3-1.8,0.4-3.5,0.4-5.3
	c0-1.8,0-3.3,0-4.6v-4c0-1.4-0.2-2.7-0.6-3.8c-0.4-1.1-1.2-1.9-2.4-2.4c-1.1-0.5-2.6-0.9-4.6-1.1c-1.9-0.3-3.4-0.4-4.5-0.5v-3.7
	h31.8V55.3L369.3,55.3z M600,84.1h-24.7v-3.3c0.8-0.1,1.7-0.1,2.6-0.2c0.9-0.1,1.7-0.2,2.3-0.4c0.9-0.3,1.7-0.8,2.1-1.6
	c0.5-0.8,0.7-1.7,0.7-3V49.9c0-3.6-0.9-6.3-2.5-8.2c-1.7-1.9-3.7-2.9-6.2-2.9c-1.8,0-3.5,0.3-5,0.8c-1.5,0.6-2.8,1.2-4,2.1
	c-1.1,0.8-2,1.6-2.7,2.5c-0.7,0.9-1.1,1.6-1.4,2.1v28.8c0,1.1,0.2,2.1,0.7,2.8c0.5,0.7,1.2,1.3,2.1,1.7c0.7,0.3,1.5,0.6,2.3,0.8
	c0.8,0.2,1.7,0.3,2.6,0.4v3.3h-24.7v-3.3c0.8-0.1,1.6-0.1,2.4-0.2c0.8-0.1,1.6-0.2,2.2-0.4c0.9-0.3,1.7-0.8,2.1-1.6
	c0.5-0.8,0.7-1.7,0.7-3V44.7c0-1.2-0.2-2.2-0.8-3.2c-0.5-1-1.2-1.8-2.1-2.4c-0.6-0.4-1.4-0.7-2.3-0.9c-0.9-0.2-1.8-0.3-2.9-0.4v-3.3
	l16.7-1.1l0.7,0.7v7h0.2c0.8-0.8,1.8-1.8,3.1-2.9c1.2-1.1,2.4-2.1,3.5-2.8c1.3-0.8,2.8-1.5,4.5-2c1.7-0.5,3.7-0.8,5.9-0.8
	c4.8,0,8.4,1.5,10.8,4.5c2.3,3,3.5,7,3.5,12v26c0,1.2,0.2,2.1,0.6,2.9c0.4,0.7,1.1,1.3,2.1,1.7c0.8,0.3,1.5,0.6,2.1,0.7
	c0.6,0.1,1.4,0.2,2.5,0.3V84.1L600,84.1z M545.7,72.3c-2.1,4-4.9,7.2-8.5,9.5c-3.5,2.4-7.6,3.6-12.2,3.6c-4.1,0-7.6-0.7-10.6-2.1
	c-3-1.4-5.6-3.3-7.5-5.8c-2-2.4-3.4-5.3-4.4-8.5c-1-3.3-1.4-6.7-1.4-10.3c0-3.2,0.5-6.4,1.6-9.6c1-3.1,2.6-5.9,4.6-8.5
	c1.9-2.4,4.3-4.3,7.2-5.8c2.9-1.5,6.1-2.2,9.7-2.2c3.7,0,6.8,0.6,9.4,1.7c2.6,1.1,4.8,2.7,6.4,4.7c1.6,1.9,2.7,4.1,3.5,6.7
	c0.8,2.6,1.2,5.4,1.2,8.4v3.4h-33.3c0,3.3,0.3,6.3,0.9,8.9c0.6,2.7,1.6,5,3,7.1c1.3,2,3,3.5,5.2,4.6c2.1,1.1,4.7,1.7,7.7,1.7
	c3,0,5.6-0.7,7.8-2.1c2.2-1.4,4.3-3.9,6.3-7.6L545.7,72.3L545.7,72.3z M534.4,53.3c0-1.9-0.2-3.9-0.5-6.1c-0.3-2.2-0.8-4-1.6-5.4
	c-0.8-1.6-1.9-2.8-3.2-3.8c-1.4-1-3.1-1.5-5.3-1.5c-3.6,0-6.5,1.5-8.9,4.4c-2.4,3-3.6,7.1-3.9,12.4H534.4L534.4,53.3z M503.1,83.2
	l-17.6,1.1l-0.8-0.7v-4.7l-0.4-0.1c-1.8,2-4,3.6-6.6,4.8c-2.6,1.2-5.3,1.9-8,1.9c-2.9,0-5.6-0.6-8.3-1.9c-2.7-1.3-5-3-7-5.4
	c-2-2.3-3.6-5.1-4.8-8.4c-1.2-3.3-1.8-6.9-1.8-10.9c0-3.6,0.6-7,1.9-10.3c1.3-3.2,3-6.1,5.2-8.5c2.1-2.3,4.6-4.1,7.6-5.4
	c3-1.3,6.1-2,9.2-2c2.4,0,4.7,0.3,6.9,0.9c2.3,0.6,4.2,1.4,5.8,2.3V18.5c0-1.4-0.2-2.7-0.7-3.9c-0.5-1.2-1.1-2.1-2-2.7
	c-1-0.6-2.2-1.1-3.9-1.4c-1.6-0.3-3.4-0.5-5.2-0.6V6.7l20.6-1.2l0.8,0.8v67.5c0,1.2,0.2,2.2,0.7,3c0.5,0.8,1.1,1.5,2,2.1
	c0.6,0.4,1.6,0.7,2.8,0.8c1.2,0.1,2.3,0.2,3.4,0.2V83.2L503.1,83.2z M484.7,74.4V45.1c-0.3-0.9-0.7-1.8-1.3-2.8
	c-0.6-1-1.4-1.9-2.3-2.8c-1-0.8-2.1-1.6-3.5-2.1c-1.3-0.6-2.9-0.8-4.6-0.8c-2.1,0-3.9,0.5-5.6,1.6c-1.7,1-3.2,2.5-4.6,4.5
	c-1.3,1.9-2.3,4.3-3,7.2c-0.7,2.9-1.1,6.2-1.1,9.7c0,2.8,0.3,5.4,0.8,7.7c0.5,2.3,1.5,4.5,2.8,6.5c1.2,1.9,2.7,3.4,4.6,4.6
	c1.8,1.1,4,1.7,6.6,1.7c2.7,0,5-0.6,6.8-1.8C482,77.1,483.5,75.8,484.7,74.4L484.7,74.4z M450.8,40.5c0,1.7-0.4,3.3-1.3,4.6
	c-0.9,1.3-2.2,2-3.9,2c-1.9,0-3.4-0.5-4.4-1.5c-1-1-1.5-2.1-1.5-3.2c0-0.7,0.1-1.4,0.2-2c0.1-0.6,0.2-1.2,0.3-1.8
	c-1.6,0-3.5,0.6-5.6,1.9c-2.1,1.3-4,3.1-5.5,5.5v29.1c0,1.2,0.2,2.1,0.7,2.9c0.5,0.7,1.2,1.3,2.2,1.7c0.9,0.3,2,0.6,3.3,0.8
	c1.3,0.2,2.5,0.3,3.5,0.4v3.3h-26.5v-0.2c-0.8,0.3-1.5,0.5-2.1,0.7c-1.2,0.3-2.6,0.5-4.1,0.5c-2.7,0-4.8-0.6-6.4-1.9
	c-1.6-1.2-2.6-3-3-5.4h-0.3c-2.2,2.4-4.6,4.3-7.1,5.6c-2.5,1.3-5.6,1.9-9.1,1.9c-3.8,0-6.9-1.1-9.3-3.4c-2.4-2.3-3.7-5.3-3.7-9
	c0-1.9,0.3-3.7,0.8-5.2c0.6-1.5,1.4-2.9,2.5-4.1c0.9-1,2-1.9,3.4-2.7c1.4-0.8,2.7-1.4,3.9-1.9c1.5-0.6,4.6-1.6,9.3-3.2
	c4.7-1.6,7.8-2.8,9.5-3.7v-5c0-0.4-0.1-1.3-0.3-2.5c-0.2-1.2-0.6-2.4-1.2-3.6c-0.7-1.3-1.6-2.4-2.9-3.3c-1.2-0.9-3-1.4-5.3-1.4
	c-1.6,0-3,0.3-4.4,0.8c-1.3,0.5-2.3,1.1-2.8,1.6c0,0.7,0.2,1.7,0.5,3c0.3,1.3,0.5,2.5,0.5,3.7c0,1.2-0.5,2.3-1.6,3.2
	c-1.1,1-2.6,1.5-4.5,1.5c-1.7,0-2.9-0.6-3.7-1.8c-0.8-1.2-1.2-2.5-1.2-4c0-1.6,0.6-3,1.7-4.5c1.1-1.4,2.5-2.7,4.3-3.8
	c1.5-1,3.4-1.7,5.6-2.4c2.2-0.7,4.3-1,6.4-1c2.9,0,5.3,0.2,7.5,0.6c2.1,0.4,4,1.2,5.8,2.5c1.7,1.2,3,2.9,4,5.1
	c0.9,2.1,1.4,4.9,1.4,8.3c0,4.9-0.1,9.1-0.2,12.9c-0.1,3.7-0.2,7.8-0.2,12.3c0,1.3,0.2,2.4,0.7,3.1c0.5,0.8,1.2,1.4,2.1,2
	c0.5,0.3,1.3,0.5,2.4,0.5c1.1,0,2.2,0.1,3.4,0.1v0.6c0.1,0,0.2,0,0.4,0c0.8-0.1,1.6-0.2,2.2-0.4c0.9-0.3,1.7-0.8,2.1-1.6
	c0.5-0.8,0.7-1.7,0.7-3V44.7c0-1.1-0.2-2.1-0.8-3.1c-0.5-1-1.2-1.8-2.1-2.4c-0.6-0.4-1.4-0.7-2.3-0.9c-0.9-0.2-1.8-0.3-2.9-0.4v-3.3
	l16.7-1.1l0.7,0.7v7h0.2c2.1-2.7,4.5-4.8,7.1-6.2c2.6-1.4,4.9-2.1,7.1-2.1c2.1,0,3.9,0.7,5.2,2.1C450.1,36.3,450.8,38.2,450.8,40.5
	L450.8,40.5z M396.5,56.4c-2.9,0.8-5.4,1.7-7.6,2.5c-2.2,0.8-4.2,1.8-6.1,3c-1.7,1.1-3,2.5-4,4.1c-1,1.6-1.5,3.4-1.5,5.6
	c0,2.8,0.7,4.9,2.2,6.2c1.5,1.3,3.4,2,5.6,2c2.4,0,4.5-0.6,6.4-1.8c1.8-1.2,3.4-2.5,4.6-4.1L396.5,56.4L396.5,56.4z"/>
<g>
	<path class="st1" d="M296.2,14.9C229.7,43,154.2,32,81,7.5C154.7,24,239.6,36,302.6,2.6L296.2,14.9L296.2,14.9z"/>
	<path class="st1" d="M81.6,84.4H48.9v-3.9c0.9-0.1,2.2-0.2,3.9-0.3c1.7-0.1,2.8-0.4,3.5-0.7c1.1-0.4,1.9-1.1,2.4-2
		c0.5-0.9,0.8-2.1,0.8-3.5V46.1h-37v27.2c0,1.3,0.2,2.4,0.6,3.3c0.4,0.9,1.3,1.7,2.5,2.3c0.6,0.3,1.7,0.7,3.3,1
		c1.6,0.3,2.9,0.5,3.8,0.5v3.9H0.2v-3.9C1,80.4,2.3,80.3,4,80.1c1.7-0.1,2.8-0.4,3.5-0.7c1.1-0.4,1.9-1.1,2.4-2
		c0.5-0.9,0.8-2.1,0.8-3.5V17.5c0-1.2-0.2-2.2-0.7-3.2c-0.5-1-1.3-1.7-2.5-2.3c-1-0.5-2.2-0.9-3.6-1.3c-1.4-0.4-2.6-0.6-3.7-0.7V6.2
		h32.6v3.9c-1,0-2.3,0.2-3.8,0.5c-1.5,0.3-2.6,0.6-3.3,0.8c-1.3,0.5-2.1,1.2-2.5,2.2c-0.4,1-0.6,2.2-0.6,3.4v24.2h37V17.5
		c0-1.2-0.2-2.2-0.7-3.2c-0.5-1-1.3-1.7-2.5-2.3c-1-0.5-2.2-0.9-3.6-1.3c-1.4-0.4-2.6-0.6-3.7-0.7V6.2h32.6v3.9
		c-1,0-2.3,0.2-3.8,0.5c-1.5,0.3-2.6,0.6-3.3,0.8c-1.3,0.5-2.1,1.2-2.5,2.2c-0.4,1-0.6,2.2-0.6,3.4v56.3c0,1.3,0.2,2.4,0.6,3.3
		c0.4,0.9,1.2,1.7,2.5,2.3c0.6,0.3,1.7,0.7,3.3,1c1.6,0.3,2.9,0.5,3.8,0.5V84.4L81.6,84.4z M301.3,83.4c-1.7,0.6-3.3,1.1-4.6,1.5
		c-1.3,0.4-2.8,0.6-4.5,0.6c-2.9,0-5.2-0.7-6.9-2c-1.7-1.4-2.8-3.3-3.3-5.9h-0.3c-2.4,2.6-5,4.7-7.7,6.1c-2.7,1.4-6.1,2.1-9.9,2.1
		c-4.1,0-7.5-1.2-10.1-3.7c-2.6-2.5-4-5.8-4-9.8c0-2.1,0.3-4,0.9-5.6c0.6-1.7,1.5-3.1,2.7-4.5c0.9-1.1,2.1-2.1,3.6-2.9
		c1.5-0.9,3-1.6,4.3-2.1c1.7-0.6,5-1.8,10.1-3.5c5.1-1.7,8.5-3,10.3-4v-5.5c0-0.5-0.1-1.4-0.3-2.7c-0.2-1.4-0.6-2.6-1.3-3.9
		c-0.7-1.4-1.8-2.6-3.1-3.6c-1.3-1-3.3-1.5-5.7-1.5c-1.7,0-3.3,0.3-4.7,0.9c-1.5,0.6-2.5,1.2-3.1,1.8c0,0.7,0.2,1.8,0.5,3.3
		c0.4,1.4,0.5,2.7,0.5,4c0,1.3-0.6,2.4-1.7,3.5c-1.2,1.1-2.8,1.6-4.9,1.6c-1.8,0-3.2-0.7-4.1-2c-0.9-1.3-1.3-2.8-1.3-4.4
		c0-1.7,0.6-3.3,1.8-4.8c1.2-1.5,2.8-2.9,4.7-4.1c1.7-1,3.7-1.9,6-2.6c2.4-0.7,4.7-1.1,6.9-1.1c3.1,0,5.8,0.2,8.1,0.6
		c2.3,0.4,4.4,1.3,6.3,2.7c1.9,1.4,3.3,3.2,4.3,5.5c1,2.3,1.5,5.3,1.5,9c0,5.3-0.1,9.9-0.2,14c-0.1,4.1-0.2,8.5-0.2,13.3
		c0,1.4,0.2,2.6,0.8,3.4c0.5,0.8,1.3,1.6,2.3,2.2c0.6,0.3,1.4,0.5,2.6,0.5c1.2,0,2.4,0.1,3.7,0.1V83.4L301.3,83.4z M281.9,54.3
		c-3.1,0.9-5.9,1.8-8.3,2.7c-2.4,0.9-4.6,2-6.6,3.3c-1.9,1.2-3.3,2.7-4.4,4.4c-1.1,1.7-1.6,3.7-1.6,6.1c0,3,0.8,5.3,2.4,6.7
		c1.6,1.4,3.7,2.1,6.1,2.1c2.6,0,4.9-0.6,6.9-1.9c2-1.3,3.7-2.8,5-4.5L281.9,54.3L281.9,54.3z M250.5,84.4h-26.8v-3.6
		c0.9-0.1,1.8-0.2,2.8-0.2c1-0.1,1.9-0.2,2.5-0.5c1-0.3,1.8-0.9,2.3-1.7c0.5-0.8,0.8-1.9,0.8-3.2V47.2c0-3.9-0.9-6.8-2.7-8.9
		c-1.8-2.1-4.1-3.1-6.7-3.1c-2,0-3.8,0.3-5.4,0.9c-1.6,0.6-3.1,1.4-4.3,2.2c-1.2,0.8-2.2,1.7-2.9,2.7c-0.7,1-1.2,1.7-1.6,2.3v31.2
		c0,1.2,0.2,2.3,0.8,3.1c0.5,0.8,1.3,1.4,2.3,1.9c0.8,0.4,1.6,0.6,2.5,0.8c0.9,0.2,1.8,0.3,2.8,0.4v3.6h-25.8h-0.9h-25.8v-3.6
		c0.9-0.1,1.8-0.2,2.8-0.2c1-0.1,1.9-0.2,2.5-0.5c1-0.3,1.8-0.9,2.3-1.7c0.5-0.8,0.8-1.9,0.8-3.2V47.2c0-3.9-0.9-6.8-2.7-8.9
		c-1.8-2.1-4.1-3.1-6.7-3.1c-2,0-3.8,0.3-5.4,0.9c-1.6,0.6-3.1,1.4-4.3,2.2c-1.2,0.8-2.2,1.7-2.9,2.7c-0.7,1-1.2,1.7-1.6,2.3v31.2
		c0,1.2,0.2,2.3,0.8,3.1c0.5,0.8,1.3,1.4,2.3,1.9c0.8,0.4,1.6,0.6,2.5,0.8c0.9,0.2,1.8,0.3,2.8,0.4v3.6h-26.8v-3.6
		c0.9-0.1,1.7-0.2,2.6-0.2c0.9-0.1,1.7-0.2,2.4-0.5c1-0.3,1.8-0.9,2.3-1.7c0.5-0.8,0.8-1.9,0.8-3.2V41.6c0-1.3-0.3-2.4-0.8-3.4
		c-0.5-1.1-1.3-1.9-2.2-2.6c-0.7-0.4-1.5-0.8-2.5-1c-1-0.2-2-0.3-3.1-0.4v-3.6l18.2-1.2l0.8,0.8v7.7h0.3c0.9-0.9,2-1.9,3.3-3.2
		c1.3-1.2,2.6-2.2,3.8-3c1.4-0.9,3-1.6,4.9-2.2c1.9-0.6,4-0.9,6.4-0.9c5.2,0,9.1,1.6,11.7,4.9c2.5,3.3,3.8,7.6,3.8,13v28.3
		c0,1.3,0.2,2.3,0.7,3.1c0.4,0.8,1.2,1.4,2.3,1.8c0.9,0.4,1.6,0.6,2.3,0.8c0.5,0.1,1.3,0.2,2.2,0.3c0.7-0.1,1.4-0.1,2.2-0.2
		c0.9-0.1,1.7-0.2,2.4-0.5c1-0.3,1.8-0.9,2.3-1.7c0.5-0.8,0.8-1.9,0.8-3.2V41.6c0-1.3-0.3-2.4-0.8-3.4c-0.5-1.1-1.3-1.9-2.2-2.6
		c-0.7-0.4-1.5-0.8-2.5-1c-1-0.2-2-0.3-3.1-0.4v-3.6l18.2-1.2l0.8,0.8v7.7h0.3c0.9-0.9,2-1.9,3.3-3.2c1.3-1.2,2.6-2.2,3.8-3
		c1.4-0.9,3-1.6,4.9-2.2c1.9-0.6,4-0.9,6.4-0.9c5.2,0,9.1,1.6,11.7,4.9c2.5,3.3,3.8,7.6,3.8,13v28.3c0,1.3,0.2,2.3,0.7,3.1
		c0.4,0.8,1.2,1.4,2.3,1.8c0.9,0.4,1.6,0.6,2.3,0.8c0.6,0.2,1.6,0.3,2.7,0.3V84.4L250.5,84.4z M132.1,71.6
		c-2.3,4.3-5.4,7.8-9.2,10.4c-3.8,2.6-8.3,3.9-13.2,3.9c-4.4,0-8.2-0.8-11.6-2.3c-3.3-1.5-6-3.6-8.2-6.3c-2.1-2.6-3.7-5.7-4.8-9.3
		c-1-3.5-1.6-7.3-1.6-11.2c0-3.5,0.6-7,1.7-10.4c1.1-3.4,2.8-6.4,5-9.2c2.1-2.6,4.7-4.7,7.8-6.3c3.1-1.6,6.6-2.4,10.5-2.4
		c4,0,7.4,0.6,10.3,1.9c2.9,1.2,5.2,3,6.9,5.1c1.7,2.1,3,4.5,3.8,7.3c0.8,2.8,1.2,5.8,1.2,9.1v3.6H94.6c0,3.6,0.3,6.8,1,9.7
		c0.7,2.9,1.8,5.5,3.3,7.7c1.4,2.1,3.3,3.8,5.6,5c2.3,1.2,5.1,1.8,8.3,1.8c3.3,0,6.1-0.8,8.5-2.3c2.4-1.5,4.7-4.3,6.9-8.2
		L132.1,71.6L132.1,71.6z M119.8,50.9c0-2.1-0.2-4.3-0.5-6.6c-0.4-2.4-0.9-4.3-1.7-5.9c-0.9-1.7-2-3.1-3.5-4.1
		c-1.5-1.1-3.4-1.6-5.7-1.6c-3.9,0-7.1,1.6-9.7,4.8c-2.6,3.2-4,7.7-4.2,13.4H119.8L119.8,50.9z"/>
</g>
</svg>
