<?xml version="1.0" encoding="utf-8"?>
<!-- Generator: Adobe Illustrator 25.3.1, SVG Export Plug-In . SVG Version: 6.00 Build 0)  -->
<svg version="1.1" id="Layer_1" xmlns="http://www.w3.org/2000/svg" xmlns:xlink="http://www.w3.org/1999/xlink" x="0px" y="0px"
	 viewBox="0 0 600 600" style="enable-background:new 0 0 600 600;" xml:space="preserve">
<style type="text/css">
	.st0{fill-rule:evenodd;clip-rule:evenodd;fill:#6FBD16;}
	.st1{fill-rule:evenodd;clip-rule:evenodd;fill:#243F60;}
</style>
<g>
	<path class="st0" d="M29.7,298.1l31.1-30.9c2,3.8,3.4,8.1,3.9,11.9c0,34.2,47.2,20.9,43.4-15.1c-2.3-21.8-17.3-46.3-32.7-51.4
		l39.1-43.7c39.6,36.5,48.9,123.3,4.8,160.9c-18.2,15.5-42.5,22-66.9,3.4C41.8,325.2,33.3,312.8,29.7,298.1L29.7,298.1z"/>
	<path class="st1" d="M452,447.7L311,587.8L166,443.6c50.8-25.1,95.6-69.9,121.2-121.7c19.1-38.8,34.1-78.8,46-119.7l123.2-9.8
		C397.7,286.7,372.9,383,452,447.7L452,447.7z"/>
	<path class="st1" d="M542,255.2l27.8,27.6c-4.3,2.4-8.4,5.2-12.3,8.2c-8,7.9-8,20.8,0,28.7c3.6,3.6,8.2,5.5,12.9,5.9l-35.8,35.6
		c-7-3.7-13.1-9.1-17.8-16.5C495.6,311.7,514.2,277.8,542,255.2L542,255.2z"/>
	<path class="st1" d="M494.5,204.6l29.2,27.2c-57.1,28.3-83.5,155.2,5.4,173.8l-56.2,40.3C383.4,368.2,441.6,260.4,494.5,204.6
		L494.5,204.6z"/>
	<path class="st1" d="M363.3,64.2l107.2,106.6c-4.4,6.5-8.6,13-12.7,19.5l-118.6-9.4C349.4,142.5,357.1,103.5,363.3,64.2L363.3,64.2
		z"/>
	<path class="st0" d="M311,12.2l34.2,34l-30.4,132.7l-99.6-7.9c-11.3,0-20.4,9.1-20.4,20.3c0,11.2,9.1,20.3,20.4,20.3l93.8-7.5
		l-3.3,14.4c-26.5,75.4-74.3,168.1-151.9,203.8c-2.1,1-4.3,1.9-6.5,2.8l-45.9-45.6c70.3-17,85.1-100.2,63-158.9
		c-5.5-14.7-13.3-28.1-22.9-39.9L311,12.2L311,12.2z"/>
</g>
</svg>
